<?xml version="1.0" standalone="no"?>
<!DOCTYPE svg PUBLIC "-//W3C//DTD SVG 20010904//EN"
 "http://www.w3.org/TR/2001/REC-SVG-20010904/DTD/svg10.dtd">
<svg version="1.0" xmlns="http://www.w3.org/2000/svg"
 width="500.000000pt" height="500.000000pt" viewBox="0 0 500.000000 500.000000"
 preserveAspectRatio="xMidYMid meet">
<metadata>
Created by potrace 1.14, written by Peter Selinger 2001-2017
</metadata>
<g transform="translate(0.000000,500.000000) scale(0.100000,-0.100000)"
fill="#000000" stroke="none">
<path d="M2357 4605 c-143 -39 -236 -126 -311 -294 -6 -13 -11 -69 -10 -125 0
-95 2 -106 36 -176 55 -115 138 -190 252 -230 52 -17 61 -20 73 -20 3 0 -21
-27 -54 -59 -109 -106 -174 -223 -206 -368 -16 -73 -16 -74 -18 -174 -3 -219
82 -490 221 -697 152 -227 408 -391 755 -483 126 -33 395 -86 630 -125 168
-27 370 -75 440 -105 17 -7 32 -13 35 -14 58 -19 142 -70 213 -128 53 -43 57
-40 23 17 -74 119 -210 232 -378 314 -96 47 -227 99 -272 108 -11 2 -40 10
-65 18 -47 16 -204 52 -268 62 -19 3 -45 8 -57 10 -11 2 -48 9 -81 15 -364 66
-685 313 -808 619 -119 300 -44 598 178 701 221 103 551 18 793 -205 39 -37
40 -27 3 83 -113 336 -375 564 -641 557 -27 0 -50 0 -50 0 0 1 16 28 35 60 48
79 59 123 59 229 0 69 -5 103 -22 145 -44 111 -144 210 -252 251 -66 25 -186
31 -253 14z"/>
<path d="M1867 3933 c-80 -133 -109 -243 -110 -427 0 -78 8 -195 18 -246 3
-14 8 -41 11 -60 21 -120 73 -297 139 -475 49 -131 63 -191 83 -342 25 -186
-18 -427 -105 -590 -53 -101 -90 -151 -166 -225 -184 -182 -418 -234 -594
-131 -105 61 -213 216 -242 348 -6 28 -14 61 -17 75 -9 42 -11 231 -2 284 4
28 10 65 12 82 3 17 8 39 12 50 9 29 -109 -97 -155 -165 -170 -250 -205 -509
-98 -714 17 -34 33 -64 34 -67 2 -3 -29 -4 -68 -3 -115 2 -215 -35 -296 -110
-112 -103 -160 -244 -133 -394 15 -89 52 -157 120 -224 91 -89 200 -131 320
-124 218 12 391 180 407 396 5 59 -5 135 -22 181 -6 16 -2 15 50 -3 80 -28
125 -34 245 -33 151 2 278 44 431 145 84 56 260 234 327 332 100 145 171 324
189 477 13 98 4 374 -12 399 -2 4 -6 24 -9 45 -18 110 -87 339 -172 566 -190
508 -237 732 -194 909 10 40 9 63 -3 44z"/>
<path d="M2947 1914 c-1 -1 -24 -5 -52 -8 -249 -33 -501 -173 -741 -411 -83
-82 -200 -211 -261 -285 -266 -328 -434 -503 -573 -597 -50 -34 -160 -83 -185
-83 -9 0 -14 -4 -11 -9 9 -14 120 -4 208 20 247 66 510 269 806 621 210 250
442 395 709 443 108 19 297 13 386 -14 101 -30 207 -85 270 -142 302 -269 120
-717 -369 -904 -38 -15 -78 -30 -89 -34 -15 -6 -2 -12 50 -24 303 -71 606 -8
771 159 29 30 65 77 80 104 l28 51 29 -55 c82 -152 237 -240 407 -229 337 20
517 408 315 682 -52 71 -123 121 -215 151 -53 18 -81 21 -150 18 -109 -6 -183
-36 -260 -106 -32 -29 -61 -49 -63 -45 -3 5 -8 28 -12 53 -17 105 -96 254
-183 345 -121 126 -354 242 -547 270 -11 2 -33 6 -50 9 -69 14 -288 29 -298
20z"/>
</g>
</svg>
